# xmcd
#
# Track frame offsets:
#	150
#	25897
#	35984
#	67697
#	91252
#	131080
#	137098
#
# Disc length: 2179 seconds
#
# Revision: 1
# Processed by: cddbd v1.5.2PL0 Copyright (c) Steve Scherf et al.
# Submitted via: audiograbber 1.83.01
#
DISCID=5c088107
DTITLE=Grateful Dead - 79-11-05 The Spectrum, Philadelphia PA
DYEAR=1900
DGENRE=
TTITLE0=Drums
TTITLE1=Space
TTITLE2=Lost Sailor
TTITLE3=Saint Of Circumstance
TTITLE4=Sugar Magnolia
TTITLE5=Crowd - Tuning
TTITLE6=Casey Jones
EXTD=
EXTT0=
EXTT1=
EXTT2=
EXTT3=
EXTT4=
EXTT5=
EXTT6=
PLAYORDER=
